<svg width="38" height="35" viewBox="0 0 38 35" fill="none" xmlns="http://www.w3.org/2000/svg">
<path d="M11.6429 31.125C11.2518 30.7604 11.0563 30.3287 11.0563 29.83C11.0563 29.3312 11.2518 28.9001 11.6429 28.5365L23.1008 17.8542L11.6038 7.13542C11.2388 6.79514 11.0563 6.36979 11.0563 5.85938C11.0563 5.34896 11.2518 4.91146 11.6429 4.54687C12.0339 4.18229 12.4969 4 13.0319 4C13.5669 4 14.0294 4.18229 14.4194 4.54687L27.5589 16.8333C27.7153 16.9792 27.8264 17.1372 27.8921 17.3073C27.9578 17.4774 27.9901 17.6597 27.989 17.8542C27.989 18.0486 27.9562 18.2309 27.8905 18.401C27.8248 18.5712 27.7143 18.7292 27.5589 18.875L14.3803 31.1615C14.0153 31.5017 13.5653 31.6719 13.0303 31.6719C12.4954 31.6719 12.0329 31.4896 11.6429 31.125Z" fill="#4C5369"/>
</svg>
