<svg width="35" height="35" viewBox="0 0 35 35" fill="none" xmlns="http://www.w3.org/2000/svg">
<path d="M17.5 11.6667C14.2771 11.6667 11.6666 14.2771 11.6666 17.5C11.6666 20.7229 14.2771 23.3333 17.5 23.3333C20.7229 23.3333 23.3333 20.7229 23.3333 17.5C23.3333 14.2771 20.7229 11.6667 17.5 11.6667ZM30.5375 16.0417C30.2071 13.0844 28.881 10.3273 26.7769 8.2231C24.6727 6.11896 21.9156 4.79284 18.9583 4.46251V1.45834H16.0416V4.46251C13.0843 4.79284 10.3272 6.11896 8.22307 8.2231C6.11893 10.3273 4.79281 13.0844 4.46248 16.0417H1.45831V18.9583H4.46248C4.79281 21.9157 6.11893 24.6728 8.22307 26.7769C10.3272 28.8811 13.0843 30.2072 16.0416 30.5375V33.5417H18.9583V30.5375C21.9156 30.2072 24.6727 28.8811 26.7769 26.7769C28.881 24.6728 30.2071 21.9157 30.5375 18.9583H33.5416V16.0417H30.5375ZM17.5 27.7083C11.8562 27.7083 7.29165 23.1438 7.29165 17.5C7.29165 11.8563 11.8562 7.29168 17.5 7.29168C23.1437 7.29168 27.7083 11.8563 27.7083 17.5C27.7083 23.1438 23.1437 27.7083 17.5 27.7083Z" fill="#4C5369"/>
</svg>
