<svg fill="none" height="512" viewBox="0 0 124 124" width="512" xmlns="http://www.w3.org/2000/svg" xmlns:xlink="http://www.w3.org/1999/xlink"><linearGradient id="paint0_linear_39_1147" gradientUnits="userSpaceOnUse" x1="21" x2="103" y1="21" y2="103"><stop offset="0" stop-color="#ffb545"/><stop offset=".973958" stop-color="#ffe39b"/></linearGradient><path clip-rule="evenodd" d="m103 62c0 8.1091-2.405 16.036-6.9098 22.7784-4.5051 6.7424-10.9085 11.9975-18.4002 15.1007-7.4918 3.1029-15.7355 3.9149-23.6887 2.3329s-15.2588-5.4867-20.9928-11.2206c-5.7339-5.734-9.6387-13.0394-11.2207-20.9926s-.77-16.1971 2.3332-23.6889 8.3583-13.8949 15.1007-18.4001c6.7424-4.5051 14.6693-6.9098 22.7784-6.9098 10.8738 0 21.3023 4.3196 28.9913 12.0086s12.0086 18.1175 12.0086 28.9914z" fill="url(#paint0_linear_39_1147)" fill-rule="evenodd"/></svg>