<svg fill="none" height="512" viewBox="0 0 124 124" width="512" xmlns="http://www.w3.org/2000/svg" xmlns:xlink="http://www.w3.org/1999/xlink"><linearGradient id="paint0_linear_19_681" gradientUnits="userSpaceOnUse" x1="21" x2="103" y1="21" y2="103"><stop offset="0" stop-color="#038fbc"/><stop offset="1" stop-color="#73dbfd"/></linearGradient><linearGradient id="lg1"><stop offset="0" stop-color="#ffb545"/><stop offset="1" stop-color="#ffe39b"/></linearGradient><linearGradient id="paint1_linear_19_681" gradientUnits="userSpaceOnUse" x1="83" x2="99" xlink:href="#lg1" y1="39" y2="55"/><linearGradient id="paint2_linear_19_681" gradientUnits="userSpaceOnUse" x1="91" x2="103" xlink:href="#lg1" y1="21" y2="33"/><linearGradient id="paint3_linear_19_681" gradientUnits="userSpaceOnUse" x1="68" x2="82" xlink:href="#lg1" y1="23" y2="37"/><linearGradient id="paint4_linear_19_681" gradientUnits="userSpaceOnUse" x1="15" x2="57.574" y1="65" y2="96.687"><stop offset="0" stop-color="#dfdfdf"/><stop offset="1" stop-color="#fff"/></linearGradient><path d="m102.877 73.1373c.791-2.6503-2.398-4.5191-4.8627-3.264-.7574.3857-1.5315.7426-2.3208 1.0696-5.9628 2.4698-12.5241 3.116-18.8541 1.8569-6.3301-1.2592-12.1447-4.367-16.7085-8.9308-4.5637-4.5637-7.6716-10.3782-8.9307-16.7083s-.6128-12.8915 1.857-18.8543c.327-.7892.6839-1.5633 1.0696-2.3207 1.255-2.4645-.6138-5.6532-3.2641-4.8629-3.9827 1.1876-7.7877 2.9688-11.2809 5.3029-6.8756 4.5942-12.2346 11.1239-15.3991 18.7637-3.1645 7.6399-3.9926 16.0467-2.3793 24.1571 1.6132 8.1105 5.5952 15.5603 11.4425 21.4076 5.8473 5.8472 13.2973 9.8289 21.4077 11.4429 8.1104 1.613 16.517.785 24.1568-2.3796 7.6398-3.1645 14.1697-8.5234 18.7639-15.3991 2.3341-3.4932 4.1157-7.2982 5.3027-11.281z" fill="url(#paint0_linear_19_681)"/><g clip-rule="evenodd" fill-rule="evenodd"><path d="m94.8563 49.5295c-.5735.2878-1.0385.7535-1.3255 1.3275l-1.866 3.7322c-.2739.5477-1.0557.5477-1.3296 0l-1.8661-3.7322c-.2869-.574-.7519-1.0397-1.3254-1.3275l-3.7339-1.8741c-.5473-.2748-.5461-1.0565.0021-1.3295l3.7259-1.8558c.5772-.2875 1.0452-.7549 1.3336-1.3316l1.8638-3.7277c.2739-.5477 1.0557-.5477 1.3296 0l1.8638 3.7277c.2883.5767.7564 1.0441 1.3336 1.3315l3.7259 1.8559c.5482.273.5494 1.0547.0021 1.3295z" fill="url(#paint1_linear_19_681)"/><path d="m99.8922 28.8971c-.4301.2159-.7788.5652-.9941.9956l-1.3995 2.7992c-.2055.4108-.7917.4108-.9972 0l-1.3995-2.7992c-.2153-.4304-.564-.7797-.9941-.9956l-2.8004-1.4056c-.4106-.206-.4097-.7923.0015-.9971l2.7945-1.3919c.4328-.2156.7839-.5661 1.0002-.9986l1.3978-2.7958c.2055-.4108.7917-.4108.9972 0l1.3978 2.7958c.2163.4325.5674.783 1.0002.9986l2.7944 1.3919c.411.2048.412.7911.002.9971z" fill="url(#paint2_linear_19_681)"/><path d="m78.3743 32.2133c-.5019.2519-.9087.6594-1.1598 1.1615l-1.6328 3.2657c-.2397.4793-.9237.4793-1.1634 0l-1.6328-3.2657c-.2511-.5021-.6579-.9096-1.1598-1.1615l-3.2671-1.6398c-.479-.2404-.4779-.9244.0018-1.1634l3.2602-1.6238c.505-.2515.9146-.6605 1.1669-1.1651l1.6308-3.2617c.2397-.4793.9237-.4793 1.1634 0l1.6308 3.2617c.2523.5046.6619.9135 1.1669 1.1651l3.2602 1.6238c.4797.239.4808.923.0018 1.1634z" fill="url(#paint3_linear_19_681)"/></g><path d="m50 99s-13.4348 0-17.25 0c-8.6985 0-15.75-7.1634-15.75-16s7.0515-16 15.75-16c7.9861 0 14.5839 6.0381 15.6111 13.8655.5314-.0993 1.0792-.1512 1.6389-.1512 4.9706 0 9 4.0934 9 9.1428 0 5.0495-4.0294 9.1429-9 9.1429z" fill="#000" fill-opacity=".15"/><path d="m48 97s-13.4348 0-17.25 0c-8.6985 0-15.75-7.1634-15.75-16s7.0515-16 15.75-16c7.9861 0 14.5839 6.0381 15.6111 13.8655.5314-.0993 1.0792-.1512 1.6389-.1512 4.9706 0 9 4.0934 9 9.1428 0 5.0495-4.0294 9.1429-9 9.1429z" fill="url(#paint4_linear_19_681)"/></svg>