<svg fill="none" height="512" viewBox="0 0 124 124" width="512" xmlns="http://www.w3.org/2000/svg" xmlns:xlink="http://www.w3.org/1999/xlink"><linearGradient id="lg1"><stop offset="0" stop-color="#bdd2e2"/><stop offset="1" stop-color="#99cbf1"/></linearGradient><linearGradient id="paint0_linear_38_1129" gradientUnits="userSpaceOnUse" x1="31" x2="82" xlink:href="#lg1" y1="113" y2="113"/><linearGradient id="paint1_linear_38_1129" gradientUnits="userSpaceOnUse" x1="43" x2="101" xlink:href="#lg1" y1="98" y2="98"/><linearGradient id="paint2_linear_38_1129" gradientUnits="userSpaceOnUse" x1="23" x2="84" xlink:href="#lg1" y1="91" y2="91"/><linearGradient id="paint3_linear_38_1129" gradientUnits="userSpaceOnUse" x1="70" x2="112" y1="10" y2="52"><stop offset="0" stop-color="#038fbc"/><stop offset="1" stop-color="#73dbfd"/></linearGradient><linearGradient id="paint4_linear_38_1129" gradientUnits="userSpaceOnUse" x1="18" x2="106.908" y1="12" y2="78.791"><stop offset="0" stop-color="#dfdfdf"/><stop offset="1" stop-color="#fff"/></linearGradient><path d="m77 108c2.7614 0 5 2.239 5 5s-2.2386 5-5 5-5-2.239-5-5c0-.342.0344-.677.1-1h-39.1c-1.1046 0-2-.895-2-2s.8954-2 2-2z" fill="url(#paint0_linear_38_1129)"/><path d="m95 104c3.3137 0 6-2.686 6-6 0-3.3137-2.6863-6-6-6s-6 2.6863-6 6c0 .7013.1203 1.3744.3414 2h-44.3414c-1.1046 0-2 .895-2 2s.8954 2 2 2z" fill="url(#paint1_linear_38_1129)"/><path d="m79 96c2.7614 0 5-2.2386 5-5s-2.2386-5-5-5-5 2.2386-5 5c0 .3425.0344.6769.1 1h-49.1c-1.1046 0-2 .8954-2 2s.8954 2 2 2z" fill="url(#paint2_linear_38_1129)"/><path d="m111.937 36.7045c.405-1.3575-1.228-2.3147-2.491-1.6719-.388.1976-.784.3804-1.188.5479-3.054 1.2651-6.415 1.596-9.6574.9511-3.2422-.6449-6.2204-2.2368-8.5579-4.5743s-3.9294-5.3157-4.5743-8.5579-.3139-6.603.9512-9.6571c.1674-.4042.3502-.8007.5478-1.1886.6428-1.2623-.3144-2.89561-1.6719-2.4908-2.0399.6083-3.9888 1.5206-5.778 2.7161-3.5217 2.3531-6.2665 5.6976-7.8873 9.6107-1.6209 3.9131-2.045 8.219-1.2187 12.3732.8263 4.1541 2.8658 7.9698 5.8608 10.9648 2.9949 2.9949 6.8108 5.0345 10.9649 5.8608s8.4599.4023 12.373-1.2186c3.9128-1.6209 7.2578-4.3657 9.6108-7.8874 1.195-1.7892 2.108-3.7381 2.716-5.778z" fill="url(#paint3_linear_38_1129)"/><path d="m89.1429 82s-28.1491 0-36.1429 0c-18.2254 0-33-15.2223-33-34s14.7746-34 33-34c16.7327 0 30.5567 12.831 32.7089 29.4642 1.1135-.211 2.2612-.3213 3.434-.3213 10.4145 0 18.8571 8.6984 18.8571 19.4285s-8.4426 19.4286-18.8571 19.4286z" fill="#000" fill-opacity=".15"/><path d="m87.1429 80s-28.1491 0-36.1429 0c-18.2254 0-33-15.2223-33-34s14.7746-34 33-34c16.7327 0 30.5567 12.831 32.7089 29.4642 1.1135-.211 2.2612-.3213 3.434-.3213 10.4145 0 18.8571 8.6984 18.8571 19.4285s-8.4426 19.4286-18.8571 19.4286z" fill="url(#paint4_linear_38_1129)"/></svg>