<svg fill="none" height="512" viewBox="0 0 124 124" width="512" xmlns="http://www.w3.org/2000/svg" xmlns:xlink="http://www.w3.org/1999/xlink"><linearGradient id="paint0_linear_36_819" gradientUnits="userSpaceOnUse" x1="42" x2="106" y1="24" y2="88"><stop offset="0" stop-color="#ffb545"/><stop offset=".973958" stop-color="#ffe39b"/></linearGradient><linearGradient id="paint1_linear_36_819" gradientUnits="userSpaceOnUse" x1="18" x2="106.908" y1="33" y2="99.791"><stop offset="0" stop-color="#dfdfdf"/><stop offset="1" stop-color="#fff"/></linearGradient><path clip-rule="evenodd" d="m106 56c0 6.329-1.877 12.5159-5.393 17.7783-3.5162 5.2623-8.514 9.3639-14.3612 11.7859s-12.2813 3.0556-18.4887 1.8209-11.9093-4.2824-16.3846-8.7577-7.5229-10.1771-8.7576-16.3844c-1.2348-6.2074-.601-12.6417 1.821-18.4889 2.422-5.8473 6.5236-10.8449 11.7859-14.3611 5.2624-3.5162 11.4492-5.393 17.7782-5.393 8.487 0 16.6263 3.3714 22.6274 9.3726 6.0016 6.0012 9.3726 14.1405 9.3726 22.6274z" fill="url(#paint0_linear_36_819)" fill-rule="evenodd"/><path d="m89.1429 103s-28.1491 0-36.1429 0c-18.2254 0-33-15.2223-33-34s14.7746-34 33-34c16.7327 0 30.5567 12.831 32.7089 29.4642 1.1135-.2111 2.2612-.3213 3.434-.3213 10.4145 0 18.8571 8.6984 18.8571 19.4285s-8.4426 19.4286-18.8571 19.4286z" fill="#000" fill-opacity=".15"/><path d="m87.1429 101s-28.1491 0-36.1429 0c-18.2254 0-33-15.2223-33-34s14.7746-34 33-34c16.7327 0 30.5567 12.831 32.7089 29.4642 1.1135-.2111 2.2612-.3213 3.434-.3213 10.4145 0 18.8571 8.6984 18.8571 19.4285s-8.4426 19.4286-18.8571 19.4286z" fill="url(#paint1_linear_36_819)"/></svg>