<svg fill="none" height="512" viewBox="0 0 124 124" width="512" xmlns="http://www.w3.org/2000/svg" xmlns:xlink="http://www.w3.org/1999/xlink"><linearGradient id="paint0_linear_37_869" gradientUnits="userSpaceOnUse" x1="89.64" x2="89.64" y1="66" y2="117.63"><stop offset="0" stop-color="#ffb545"/><stop offset="1" stop-color="#ffe39b"/></linearGradient><linearGradient id="paint1_linear_37_869" gradientUnits="userSpaceOnUse" x1="44" x2="108.143" y1="12" y2="60.499"><stop offset="0" stop-color="#6a869c"/><stop offset="1" stop-color="#bdd2e2"/></linearGradient><linearGradient id="paint2_linear_37_869" gradientUnits="userSpaceOnUse" x1="16" x2="104.908" y1="12" y2="78.791"><stop offset="0" stop-color="#dfdfdf"/><stop offset="1" stop-color="#fff"/></linearGradient><g fill="#00b6f1"><rect height="24" rx="3" transform="matrix(.866 .5 -.5 .866 52.878 -17.129)" width="6" x="58.402" y="90.108"/><rect height="24" rx="3" transform="matrix(.866 .5 -.5 .866 50.467 -8.129)" width="6" x="40.402" y="90.108"/><rect height="16" rx="3" transform="matrix(.866 .5 -.5 .866 47.519 1.799)" width="6" x="20.402" y="89.572"/></g><path clip-rule="evenodd" d="m98.5693 67.5125c.3134-.7113-.2027-1.5125-.9743-1.5125h-14.6861c-.4412 0-.8368.2741-.9951.6895l-9.8417 25.8149c-.2686.7046.2469 1.4618.9951 1.4618l7.4536-.0001c.7755 0 1.2915.8086.9707 1.5207l-7.6524 16.9842c-.4871 1.081.8662 2.044 1.7121 1.218l27.1218-26.4792c.689-.6723.217-1.8486-.741-1.8486h-9.5853c-.7715 0-1.2876-.8012-.9743-1.5124z" fill="url(#paint0_linear_37_869)" fill-rule="evenodd"/><path d="m94.2857 60s-20.472 0-26.2857 0c-13.2548 0-24-10.7452-24-24s10.7452-24 24-24c12.1693 0 22.2231 9.0572 23.7883 20.7983.8098-.149 1.6445-.2269 2.4974-.2269 7.5743 0 13.7143 6.1401 13.7143 13.7143s-6.14 13.7143-13.7143 13.7143z" fill="url(#paint1_linear_37_869)"/><path d="m87.1429 82s-28.1491 0-36.1429 0c-18.2254 0-33-15.2223-33-34s14.7746-34 33-34c16.7327 0 30.5567 12.831 32.7089 29.4642 1.1135-.211 2.2612-.3213 3.434-.3213 10.4145 0 18.8571 8.6984 18.8571 19.4285s-8.4426 19.4286-18.8571 19.4286z" fill="#000" fill-opacity=".15"/><path d="m85.1429 80s-28.1491 0-36.1429 0c-18.2254 0-33-15.2223-33-34s14.7746-34 33-34c16.7327 0 30.5567 12.831 32.7089 29.4642 1.1135-.2111 2.2612-.3213 3.434-.3213 10.4145 0 18.8571 8.6984 18.8571 19.4285s-8.4426 19.4286-18.8571 19.4286z" fill="url(#paint2_linear_37_869)"/></svg>