<svg fill="none" height="512" viewBox="0 0 124 124" width="512" xmlns="http://www.w3.org/2000/svg" xmlns:xlink="http://www.w3.org/1999/xlink"><linearGradient id="paint0_linear_38_981" gradientUnits="userSpaceOnUse" x1="44" x2="108.143" y1="12" y2="60.499"><stop offset="0" stop-color="#6a869c"/><stop offset="1" stop-color="#bdd2e2"/></linearGradient><linearGradient id="paint1_linear_38_981" gradientUnits="userSpaceOnUse" x1="16" x2="104.908" y1="12" y2="78.791"><stop offset="0" stop-color="#dfdfdf"/><stop offset="1" stop-color="#fff"/></linearGradient><g fill="#dbecf9"><circle cx="88" cy="108" r="4"/><circle cx="70" cy="108" r="4"/><circle cx="52" cy="108" r="4"/><circle cx="34" cy="108" r="4"/><circle cx="16" cy="108" r="4"/><circle cx="97" cy="94" r="4"/><circle cx="79" cy="94" r="4"/><circle cx="61" cy="94" r="4"/><circle cx="43" cy="94" r="4"/><circle cx="25" cy="94" r="4"/></g><path d="m94.2857 60s-20.472 0-26.2857 0c-13.2548 0-24-10.7452-24-24s10.7452-24 24-24c12.1693 0 22.2231 9.0572 23.7883 20.7983.8098-.149 1.6445-.2269 2.4974-.2269 7.5743 0 13.7143 6.1401 13.7143 13.7143s-6.14 13.7143-13.7143 13.7143z" fill="url(#paint0_linear_38_981)"/><path d="m87.1429 82s-28.1491 0-36.1429 0c-18.2254 0-33-15.2223-33-34s14.7746-34 33-34c16.7327 0 30.5567 12.831 32.7089 29.4642 1.1135-.211 2.2612-.3213 3.434-.3213 10.4145 0 18.8571 8.6984 18.8571 19.4285s-8.4426 19.4286-18.8571 19.4286z" fill="#000" fill-opacity=".15"/><path d="m85.1429 80s-28.1491 0-36.1429 0c-18.2254 0-33-15.2223-33-34s14.7746-34 33-34c16.7327 0 30.5567 12.831 32.7089 29.4642 1.1135-.2111 2.2612-.3213 3.434-.3213 10.4145 0 18.8571 8.6984 18.8571 19.4285s-8.4426 19.4286-18.8571 19.4286z" fill="url(#paint1_linear_38_981)"/></svg>