<svg fill="none" height="512" viewBox="0 0 124 124" width="512" xmlns="http://www.w3.org/2000/svg" xmlns:xlink="http://www.w3.org/1999/xlink"><linearGradient id="lg1"><stop offset="0" stop-color="#bdd2e2"/><stop offset="1" stop-color="#99cbf1"/></linearGradient><linearGradient id="paint0_linear_38_1076" gradientUnits="userSpaceOnUse" x1="31" x2="82" xlink:href="#lg1" y1="113" y2="113"/><linearGradient id="paint1_linear_38_1076" gradientUnits="userSpaceOnUse" x1="43" x2="101" xlink:href="#lg1" y1="98" y2="98"/><linearGradient id="paint2_linear_38_1076" gradientUnits="userSpaceOnUse" x1="23" x2="84" xlink:href="#lg1" y1="91" y2="91"/><linearGradient id="paint3_linear_38_1076" gradientUnits="userSpaceOnUse" x1="44" x2="108.143" y1="12" y2="60.499"><stop offset="0" stop-color="#6a869c"/><stop offset="1" stop-color="#bdd2e2"/></linearGradient><linearGradient id="paint4_linear_38_1076" gradientUnits="userSpaceOnUse" x1="16" x2="104.908" y1="12" y2="78.791"><stop offset="0" stop-color="#dfdfdf"/><stop offset="1" stop-color="#fff"/></linearGradient><path d="m77 108c2.7614 0 5 2.239 5 5s-2.2386 5-5 5-5-2.239-5-5c0-.342.0344-.677.1-1h-39.1c-1.1046 0-2-.895-2-2s.8954-2 2-2z" fill="url(#paint0_linear_38_1076)"/><path d="m95 104c3.3137 0 6-2.686 6-6 0-3.3137-2.6863-6-6-6s-6 2.6863-6 6c0 .7013.1203 1.3744.3414 2h-44.3414c-1.1046 0-2 .895-2 2s.8954 2 2 2z" fill="url(#paint1_linear_38_1076)"/><path d="m79 96c2.7614 0 5-2.2386 5-5s-2.2386-5-5-5-5 2.2386-5 5c0 .3425.0344.6769.1 1h-49.1c-1.1046 0-2 .8954-2 2s.8954 2 2 2z" fill="url(#paint2_linear_38_1076)"/><path d="m94.2857 60s-20.472 0-26.2857 0c-13.2548 0-24-10.7452-24-24s10.7452-24 24-24c12.1693 0 22.2231 9.0572 23.7883 20.7983.8098-.149 1.6445-.2269 2.4974-.2269 7.5743 0 13.7143 6.1401 13.7143 13.7143s-6.14 13.7143-13.7143 13.7143z" fill="url(#paint3_linear_38_1076)"/><path d="m87.1429 82s-28.1491 0-36.1429 0c-18.2254 0-33-15.2223-33-34s14.7746-34 33-34c16.7327 0 30.5567 12.831 32.7089 29.4642 1.1135-.211 2.2612-.3213 3.434-.3213 10.4145 0 18.8571 8.6984 18.8571 19.4285s-8.4426 19.4286-18.8571 19.4286z" fill="#000" fill-opacity=".15"/><path d="m85.1429 80s-28.1491 0-36.1429 0c-18.2254 0-33-15.2223-33-34s14.7746-34 33-34c16.7327 0 30.5567 12.831 32.7089 29.4642 1.1135-.2111 2.2612-.3213 3.434-.3213 10.4145 0 18.8571 8.6984 18.8571 19.4285s-8.4426 19.4286-18.8571 19.4286z" fill="url(#paint4_linear_38_1076)"/></svg>