<svg fill="none" height="512" viewBox="0 0 124 124" width="512" xmlns="http://www.w3.org/2000/svg" xmlns:xlink="http://www.w3.org/1999/xlink"><linearGradient id="paint0_linear_22_715" gradientUnits="userSpaceOnUse" x1="57" x2="113" y1="20" y2="76"><stop offset="0" stop-color="#038fbc"/><stop offset="1" stop-color="#73dbfd"/></linearGradient><linearGradient id="paint1_linear_22_715" gradientUnits="userSpaceOnUse" x1="15" x2="103.908" y1="33" y2="99.791"><stop offset="0" stop-color="#dfdfdf"/><stop offset="1" stop-color="#fff"/></linearGradient><path d="m112.916 55.606c.54-1.81-1.638-3.0862-3.321-2.2291-.517.2634-1.046.5072-1.585.7304-4.072 1.6868-8.5528 2.128-12.8758 1.2682-4.323-.8599-8.2939-2.9824-11.4106-6.0991s-5.2392-7.0876-6.0991-11.4105c-.8599-4.323-.4185-8.804 1.2683-12.8762.2232-.539.467-1.0676.7304-1.5848.8571-1.6831-.4192-3.8608-2.2292-3.321-2.7199.811-5.3184 2.0275-7.704 3.6215-4.6955 3.1374-8.3553 7.5968-10.5164 12.8142-2.1612 5.2175-2.7267 10.9587-1.625 16.4975 1.1018 5.5389 3.8212 10.6265 7.8144 14.6198 3.9933 3.9933 9.0811 6.7127 14.6199 7.8144 5.5388 1.1018 11.2799.5364 16.4974-1.6248 5.2177-2.1611 9.6767-5.8209 12.8147-10.5165 1.594-2.3856 2.81-4.9841 3.621-7.704z" fill="url(#paint0_linear_22_715)"/><path d="m86.1429 103s-28.1491 0-36.1429 0c-18.2254 0-33-15.2223-33-34s14.7746-34 33-34c16.7327 0 30.5567 12.831 32.7089 29.4642 1.1135-.2111 2.2612-.3213 3.434-.3213 10.4145 0 18.8571 8.6984 18.8571 19.4285s-8.4426 19.4286-18.8571 19.4286z" fill="#000" fill-opacity=".15"/><path d="m84.1429 101s-28.1491 0-36.1429 0c-18.2254 0-33-15.2223-33-34s14.7746-34 33-34c16.7327 0 30.5567 12.831 32.7089 29.4642 1.1135-.2111 2.2612-.3213 3.434-.3213 10.4145 0 18.8571 8.6984 18.8571 19.4285s-8.4426 19.4286-18.8571 19.4286z" fill="url(#paint1_linear_22_715)"/></svg>